<?xml version="1.0" encoding="iso-8859-1"?>
<!-- Uploaded to: SVG Repo, www.svgrepo.com, Generator: SVG Repo Mixer Tools -->
<svg height="800px" width="800px" version="1.1" id="Layer_1" xmlns="http://www.w3.org/2000/svg" xmlns:xlink="http://www.w3.org/1999/xlink" 
	 viewBox="0 0 512 512" xml:space="preserve">
<path style="fill:#06484A;" d="M459.736,52.264c-129.192-58.309-278.28-58.309-407.472,0c-58.309,129.192-58.309,278.28,0,407.472
	c129.192,58.309,278.28,58.309,407.472,0C518.045,330.544,518.045,181.456,459.736,52.264z"/>
<path style="fill:#A0DDDF;" d="M467.424,48.794c-0.846-1.874-2.345-3.373-4.219-4.219C397.814,15.061,328.1,0.095,256,0.095
	c-72.101,0-141.815,14.965-207.206,44.479c-1.874,0.846-3.373,2.345-4.219,4.219c-59.433,131.682-59.433,282.73,0,414.412
	c0.846,1.874,2.345,3.373,4.219,4.219c65.391,29.514,135.105,44.479,207.206,44.479c72.1,0,141.814-14.965,207.205-44.479
	c1.874-0.846,3.373-2.345,4.219-4.219C526.858,331.523,526.858,180.476,467.424,48.794z M487.413,342.321
	c-33.498,8.968-68.788,15.841-105.05,20.616c3.528-32.279,5.452-65.294,5.733-98.5h106.948
	C494.593,290.513,492.051,316.561,487.413,342.321z M16.955,264.436h106.947c0.281,33.206,2.206,66.222,5.733,98.501
	c-36.261-4.775-71.551-11.648-105.049-20.616C19.949,316.561,17.406,290.513,16.955,264.436z M24.586,169.679
	c33.498-8.968,68.788-15.841,105.049-20.616c-3.528,32.279-5.452,65.296-5.735,98.501H16.955
	C17.406,221.486,19.949,195.439,24.586,169.679z M264.436,140.944c33.803,0.286,67.549,2.276,100.623,5.997
	c3.72,33.074,5.71,66.82,5.995,100.623H264.436V140.944L264.436,140.944z M264.436,123.901V17.048
	c26.337,0.443,52.333,2.961,77.883,7.531c8.968,33.5,15.842,68.793,20.617,105.057C330.658,126.107,297.642,124.183,264.436,123.901
	z M247.564,123.901c-33.206,0.281-66.222,2.206-98.501,5.735c4.776-36.264,11.649-71.556,20.619-105.057
	c25.551-4.57,51.545-7.089,77.883-7.531L247.564,123.901L247.564,123.901z M247.564,140.944v106.619H140.944
	c0.286-33.803,2.276-67.549,5.997-100.623C180.015,143.22,213.761,141.23,247.564,140.944z M140.944,264.436h106.619v106.618
	c-33.803-0.286-67.549-2.276-100.623-5.995C143.221,331.985,141.23,298.239,140.944,264.436z M247.564,388.098v106.853
	c-26.337-0.443-52.333-2.961-77.883-7.531c-8.97-33.5-15.842-68.793-20.619-105.057
	C181.341,385.891,214.358,387.816,247.564,388.098z M264.436,388.098c33.206-0.281,66.221-2.206,98.5-5.734
	c-4.775,36.264-11.649,71.556-20.617,105.057c-25.551,4.57-51.545,7.089-77.883,7.531V388.098L264.436,388.098z M264.436,371.054
	V264.436h106.618c-0.286,33.803-2.276,67.549-5.995,100.623C331.985,368.779,298.239,370.769,264.436,371.054z M388.097,247.563
	c-0.281-33.206-2.206-66.221-5.733-98.501c36.262,4.775,71.552,11.648,105.05,20.616c4.638,25.76,7.18,51.807,7.631,77.885
	L388.097,247.563L388.097,247.563z M483.726,151.246c-32.904-8.423-67.63-14.98-103.409-19.562
	c-4.584-35.789-11.143-70.523-19.568-103.435c31.666,6.952,62.602,17.092,92.601,30.4
	C466.657,88.656,476.776,119.686,483.726,151.246z M58.65,58.65c30-13.308,60.936-23.45,92.603-30.401
	c-8.426,32.912-14.985,67.645-19.569,103.435c-35.78,4.583-70.505,11.139-103.409,19.562C35.223,119.686,45.343,88.656,58.65,58.65z
	 M28.273,360.754c32.904,8.423,67.63,14.98,103.409,19.562c4.584,35.789,11.143,70.523,19.569,103.435
	c-31.667-6.952-62.603-17.093-92.603-30.401C45.343,423.343,35.223,392.314,28.273,360.754z M453.349,453.35
	c-30,13.308-60.936,23.45-92.601,30.4c8.426-32.912,14.985-67.645,19.568-103.435c35.78-4.583,70.505-11.139,103.409-19.562
	C476.776,392.314,466.657,423.343,453.349,453.35z"/>
</svg>